<?xml version="1.0" encoding="UTF-8"?>
<svg id="Layer_1" xmlns="http://www.w3.org/2000/svg" version="1.1" viewBox="0 0 900 560">
  <!-- Generator: Adobe Illustrator 30.3.0, SVG Export Plug-In . SVG Version: 2.1.3 Build 182)  -->
  <rect y="0" width="900" height="560" rx="26" ry="26" style="fill: #f3f7f8;"/>
  <text transform="translate(44 58)" style="fill: #24353a; font-family: Georgia, Georgia; font-size: 33px; isolation: isolate;"><tspan x="0" y="0">Rotational Symmetry and Prime Numbers</tspan></text>
  <text transform="translate(44 94)" style="fill: #4f666d; font-family: Tahoma, Tahoma; font-size: 17px; isolation: isolate;"><tspan x="0" y="0">Custom synthesis of the symmetry results attributed to Henderson (1963) and Griggs-Killian-Savage (2004).</tspan></text>
  <g>
    <text transform="translate(164 465)" style="fill: #24353a; font-family: Tahoma-Bold, Tahoma; font-size: 22px; font-weight: 700; isolation: isolate;"><tspan x="0" y="0">Prime example</tspan></text>
    <text transform="translate(62.3 494)" style="fill: #4f666d; font-family: Tahoma, Tahoma; font-size: 17px; isolation: isolate;"><tspan x="0" y="0">The classical theory allows rotational symmetry only</tspan><tspan x="48.6" y="20.4">when n is prime. In this example n = 7</tspan></text>
    <g id="Shapes">
      <path id="ShapeA" d="M253.8,152c22.7-4,66,8,82.6,34.9,9.5,15.5,1.3,21.6-4.2,31-5.6,9.5-18,14.8-19.8,20.5l-1.8,5.6s1.4,10.2,6.4,14.5,45.5,21.2,54.3,32.1c8.8,10.9,11.6,13.1,1.8,24.3-9.9,11.3-49,14.1-67.4,22.2-18.3,8.1-23.6,18-12.7,30,10.9,12,15.5,13.4,29.3,12.3s17.6,4.6,9.5,17.3-31.7,14-48.7,9.5c-14.8-3.9-45.9-19.8-54.3-30s-23.4-24.3-12.7-53.3c9.5-25.8-1.3-38.5-3.8-44.8-2.5-6.4-10.3-5.6-17-13.4-6.7-7.8-6-12.7,0-19.8s15.9-12.7,9.5-25c-6.4-12.3,12.7-61.7,49-68.1Z" style="fill: #eaeaea; isolation: isolate; stroke: #363639; stroke-miterlimit: 10; stroke-width: 6px;"/>
      <path id="ShapeB" d="M351.5,301.4c17.3,3.4,52.9,5.3,37.4-52.2-15.5-57.5-42-60.3-71.3-58.9-29.3,1.4-33.2,7.8-38.1,14.8s-8.4,11.7-19.3,10.9c-11-.8-22.8-4.7-23.7,15.7-.7,16.8,7.1,28.4-32.8,45-39.9,16.6-39.1,52.4-25.8,94.9,6.2,19.7,23.2,34.2,37,39.5,13.9,5.3,25-5.3,13.4-17.3-11.6-12-14.5-18.1-7.8-31.6,6.7-13.5,14.1-21.6,54.7,10.2,40.6,31.8,51.1,24.7,54.3,7.4s-5.8-39.3-8.9-57c-4.2-24.1,18.8-23.7,30.8-21.3h0Z" style="fill: none; isolation: isolate; opacity: .5; stroke: #2e3192; stroke-miterlimit: 10; stroke-width: 2px;"/>
      <path id="ShapeC" d="M308.9,370.9c10.2,15,32,39.9,70.1-10.2,26.2-34.6,13.2-61,5-76.2-2.5-4.7-11.6-13.5-21.9-21.9-7.3-6-14.1-7.1-21.9-7.8-7.8-.7-15.9,1.3-21.2-9-5.3-10.3-13-23.4-32-4.4-19.1,19.1-34.6,6.7-49.4,1.1s-26.3-18.6-59.2-2.1c-32.9,16.5-43.1,45.8-46.3,59.9s3.1,30.3,8.8,37.4c5.7,7.1,18.7,11.8,16-12.3-.8-7.4,6.7-13.7,16.5-18.7,9.8-5,22.6-11.6,28.6,13.4,6,25-3.2,48.7,4.6,67.4,7.8,18.7,28.2,16.6,48-10.2,19.8-26.8,31.2-40.7,54.3-6.4Z" style="fill: none; isolation: isolate; opacity: .5; stroke: #ed1c24; stroke-miterlimit: 10; stroke-width: 2px;"/>
      <path id="ShapeD" d="M225.6,380.5c-7.8,22.6,1.1,51.2,59,45.5,64-6.2,60.6-53.7,60.8-68.3.2-14.6-4-22.4-9.3-27.3s-6.7-16.9-3.2-24,9.9-15.9-10.2-22.2c-20.1-6.4-34.3-5.9-38.5-39.2-4.3-33.3-28.9-48.7-71.9-51.5-43-2.8-66.7,19.1-66.7,34.6s10.3,14.2,21.9,5.2c11.6-9.1,21.8-1.3,27.8,4l6,5.3s13.4,15.5-26.5,45.5c-39.9,30-53.2,52.8,15.3,53.3,50.3.4,43.9,14.6,35.5,39.2h0Z" style="fill: none; isolation: isolate; opacity: .5; stroke: #363639; stroke-miterlimit: 10; stroke-width: 2px;"/>
      <path id="ShapeE" d="M169.5,319.8c-18.2,5.4-38.8,18.6-22.2,47.8s55.4,64.4,91.4,44.3c36-20.1,36.7-31.8,36.3-39.9s16.2-14.8,20.8-16.2,15.9-6.5,9.2-19.1-20.9-28.6,2.1-54c23-25.4,27.8-45.5,0-84s-47.6-37-56.8-37c-12,0-36.1,13.8-9.2,22.6,10.8,3.5,17.6,15.5,17.6,22.2s9.2,24.9-25.1,21.2c-24.2-2.7-35.9-6-51.5-9.5-29.3-6.7-40.2,12.7-18.7,38.5,21.5,25.8,48.2,50.8,6,63.1h0Z" style="fill: none; isolation: isolate; opacity: .5; stroke: #808285; stroke-miterlimit: 10; stroke-width: 2px;"/>
      <path id="ShapeF" d="M176.2,238.3c-11.3-8.5-34.2-21.2-47.3,12.3-13.1,33.5-12.3,69.9,0,82.6,12.3,12.7,29.6,23.3,47.3,25.8s20.5.5,28.6-5.3,19.1,2.1,26.1,6.4c7.1,4.2,16.6,1.1,20.1-6.7l3.5-7.8h0s2.8-22.9,40.9-21.5,49.7-8.1,64.9-47.3c15.2-39.2,1.8-61-7.4-73.7-9.2-12.7-30.3-7.4-20.8,9.2,9.5,16.6-4.2,27.9-8.1,30.3s-14.8,12.7-29.6-6.4-15.2-35.3-32.1-54c-16.9-18.7-26-14.3-34.9,8.1-5,12.7-7.1,30.3-12,45.9s-23.6,13.8-39.2,2.1Z" style="fill: none; isolation: isolate; opacity: .5; stroke: #ff6aca; stroke-miterlimit: 10; stroke-width: 2px;"/>
      <path id="ShapeG" d="M241.1,177.8c-4.5-9.2-11.6-13.8-26.8-12.7-15.2,1.1-49,14.1-59.6,28.9-10.6,14.8-19.1,37.4-8.8,63.1s21.9,28.6,28.6,31,8.5,9.9,10.2,19.4,4.9,17.3,20.8,14.5c15.9-2.8,26.5-7.4,43.7,12.3,17.3,19.8,26.1,35.3,56.4,33.5,30.3-1.8,80.8-21.4,81.5-61,.3-16.6-13.9-24.2-20.5-8.1-3.2,7.9-10.2,13.4-17.6,13.4s-24.3-1.8-25.4-12,14.1-45.3,22.2-65.3c5.5-13.5,7.9-37-25-29.6-17.3,3.9-33.2,14.8-44.1,17.3l-10.9,2.5s-13.8,1.1-17.3-12.7-2.1-23.6-7.4-34.6h0Z" style="fill: none; isolation: isolate; opacity: .5; stroke: #f5ff15; stroke-miterlimit: 10; stroke-width: 2px;"/>
    </g>
  </g>
  <g>
    <rect x="500" y="146" width="320" height="286" rx="20" ry="20" style="fill: #fff; stroke: #c7d4d7;"/>
    <text transform="translate(590.3 183)" style="fill: #24353a; font-family: Tahoma-Bold, Tahoma; font-size: 23px; font-weight: 700; isolation: isolate;"><tspan x="0" y="0">Research arc</tspan></text>
    <text transform="translate(517.5 221.9)" style="fill: #455f66; font-size: 18px; isolation: isolate;"><tspan x="0" y="0" style="font-family: Tahoma-Bold, Tahoma; font-weight: 700;">1963</tspan><tspan x="45.8" y="0" style="font-family: Tahoma, Tahoma;">: Henderson shows rotationally </tspan><tspan style="font-family: Tahoma, Tahoma;"><tspan x="0" y="21.6">symmetric n-Venn diagrams can exist</tspan></tspan><tspan style="font-family: Tahoma, Tahoma;"><tspan x="0" y="43.2" xml:space="preserve"> only for prime n.</tspan></tspan></text>
    <text transform="translate(515.3 296)" style="fill: #455f66; font-size: 18px; isolation: isolate;"><tspan x="0" y="0" style="font-family: Tahoma-Bold, Tahoma; font-weight: 700;">2004</tspan><tspan x="45.8" y="0" style="font-family: Tahoma, Tahoma;">: Griggs, Killian, and Savage</tspan><tspan style="font-family: Tahoma, Tahoma;"><tspan x="0" y="21.6" xml:space="preserve"> prove symmetric Venn diagrams</tspan></tspan><tspan style="font-family: Tahoma, Tahoma;"><tspan x="0" y="43.2">exist for every prime n.</tspan></tspan></text>
    <text transform="translate(516.2 367.9)" style="fill: #455f66; font-family: Tahoma, Tahoma; font-size: 18px; isolation: isolate;"><tspan x="0" y="0">The same paper also links these</tspan><tspan x="0" y="21.6">constructions to symmetric chain</tspan><tspan x="0" y="43.2" xml:space="preserve"> decompositions.</tspan></text>
  </g>
</svg>